# xmcd
# 
# Track frame offsets:
#     150
#     25482
#     57845
#     76977
#     100345
#     123770
#     149632
#     180032
#     210615
# 
# Disc length: 3232
# 
# Revision: 2
# Processed by: cddbd v1.5.1PL0 Copyright (c) Steve Scherf et al.
# Submitted via: BonkEnc v1.0beta3
# 
DISCID=730c9e09
DTITLE=Paolo Tofani - Future Ragas
DYEAR=1900
DGENRE=World
TTITLE0=Mid day raga
TTITLE1=Bhakti
TTITLE2=Going to Hrisikesa
TTITLE3=Rajastani Sky
TTITLE4=Samsara
TTITLE5=South of Madras
TTITLE6=Ganga
TTITLE7=Vrindavana
TTITLE8=The Agra Road
EXTD=
EXTT0=
EXTT1=
EXTT2=
EXTT3=
EXTT4=
EXTT5=
EXTT6=
EXTT7=
EXTT8=
PLAYORDER=
